<mxfile host="app.diagrams.net" agent="Mozilla/5.0 (Macintosh; Intel Mac OS X 10_15_7) AppleWebKit/537.36 (KHTML, like Gecko) Chrome/135.0.0.0 Safari/537.36" version="26.2.14">
  <diagram name="Page-1" id="OkErCemOwEuDAzPWgcps">
    <mxGraphModel dx="434" dy="1950" grid="1" gridSize="10" guides="1" tooltips="1" connect="1" arrows="1" fold="1" page="1" pageScale="1" pageWidth="827" pageHeight="1169" math="0" shadow="0">
      <root>
        <mxCell id="0" />
        <mxCell id="1" parent="0" />
        <mxCell id="XkO783uFiTBXnPvVWo0g-2" value="" style="endArrow=classic;html=1;rounded=0;strokeWidth=3;" parent="1" edge="1">
          <mxGeometry width="50" height="50" relative="1" as="geometry">
            <mxPoint x="1250" y="-201" as="sourcePoint" />
            <mxPoint x="1370" y="-202" as="targetPoint" />
          </mxGeometry>
        </mxCell>
        <mxCell id="XkO783uFiTBXnPvVWo0g-3" value="&lt;span style=&quot;font-size: 18px;&quot;&gt;[31:0] RGB_pixel_in&lt;/span&gt;" style="text;html=1;align=center;verticalAlign=middle;resizable=0;points=[];autosize=1;strokeColor=none;fillColor=none;" parent="1" vertex="1">
          <mxGeometry x="1185" y="-240" width="180" height="40" as="geometry" />
        </mxCell>
        <mxCell id="XkO783uFiTBXnPvVWo0g-4" value="" style="endArrow=classic;html=1;rounded=0;strokeWidth=3;" parent="1" edge="1">
          <mxGeometry width="50" height="50" relative="1" as="geometry">
            <mxPoint x="1530" y="-141" as="sourcePoint" />
            <mxPoint x="1650" y="-142" as="targetPoint" />
          </mxGeometry>
        </mxCell>
        <mxCell id="XkO783uFiTBXnPvVWo0g-5" value="&lt;span style=&quot;font-size: 18px;&quot;&gt;[31:0] RGB_pixel_out&lt;/span&gt;" style="text;html=1;align=center;verticalAlign=middle;resizable=0;points=[];autosize=1;strokeColor=none;fillColor=none;" parent="1" vertex="1">
          <mxGeometry x="1520" y="-180" width="190" height="40" as="geometry" />
        </mxCell>
        <mxCell id="oxEXCE1vcglL-TkXqBFR-1" value="&lt;font style=&quot;font-size: 24px;&quot;&gt;Motion Overlay&lt;/font&gt;" style="rounded=0;whiteSpace=wrap;html=1;" vertex="1" parent="1">
          <mxGeometry x="1370" y="-220" width="163" height="140" as="geometry" />
        </mxCell>
        <mxCell id="oxEXCE1vcglL-TkXqBFR-2" value="" style="endArrow=classic;html=1;rounded=0;strokeWidth=3;" edge="1" parent="1">
          <mxGeometry width="50" height="50" relative="1" as="geometry">
            <mxPoint x="1250" y="-151" as="sourcePoint" />
            <mxPoint x="1370" y="-152" as="targetPoint" />
          </mxGeometry>
        </mxCell>
        <mxCell id="oxEXCE1vcglL-TkXqBFR-3" value="&lt;span style=&quot;font-size: 18px;&quot;&gt;[23:0] Highlight_color&lt;/span&gt;" style="text;html=1;align=center;verticalAlign=middle;resizable=0;points=[];autosize=1;strokeColor=none;fillColor=none;" vertex="1" parent="1">
          <mxGeometry x="1180" y="-190" width="190" height="40" as="geometry" />
        </mxCell>
        <mxCell id="oxEXCE1vcglL-TkXqBFR-5" value="" style="endArrow=classic;html=1;rounded=0;strokeWidth=3;" edge="1" parent="1">
          <mxGeometry width="50" height="50" relative="1" as="geometry">
            <mxPoint x="1250" y="-111" as="sourcePoint" />
            <mxPoint x="1370" y="-112" as="targetPoint" />
          </mxGeometry>
        </mxCell>
        <mxCell id="oxEXCE1vcglL-TkXqBFR-6" value="&lt;span style=&quot;font-size: 18px;&quot;&gt;Motion_Detected&lt;/span&gt;" style="text;html=1;align=center;verticalAlign=middle;resizable=0;points=[];autosize=1;strokeColor=none;fillColor=none;" vertex="1" parent="1">
          <mxGeometry x="1205" y="-150" width="160" height="40" as="geometry" />
        </mxCell>
      </root>
    </mxGraphModel>
  </diagram>
</mxfile>
